PathFileType	4	(X/Y/Z)	C:/Users/opensim2020/Desktop/walking_exp_matlab/subject02_walking15_straight_04.trc																																																																																																																												
DataRate	CameraRate	NumFrames	NumMarkers	Units	OrigDataRate	OrigDataStartFrame	OrigNumFrames																																																																																																																								
100	100	5	42	mm	100	1812	152																																																																																																																								
Frame#	Time	LFHD			RFHD			LBHD			RBHD			C7			T10			CLAV			STRN			RBAK			LSHO			LUPA			LELB			LFRM			LWRA			LWRB			LFIN			RSHO			RUPA			RELB			RFRM			RWRA			RWRB			RFIN			LASI			RASI			LPSI			RPSI			LTHI			LKNE			LTIB			LANK			LHEE			LTOE			RTHI			RKNE			RTIB			RANK			RHEE			RTOE			*39			*40			*41		
		X1	Y1	Z1	X2	Y2	Z2	X3	Y3	Z3	X4	Y4	Z4	X5	Y5	Z5	X6	Y6	Z6	X7	Y7	Z7	X8	Y8	Z8	X9	Y9	Z9	X10	Y10	Z10	X11	Y11	Z11	X12	Y12	Z12	X13	Y13	Z13	X14	Y14	Z14	X15	Y15	Z15	X16	Y16	Z16	X17	Y17	Z17	X18	Y18	Z18	X19	Y19	Z19	X20	Y20	Z20	X21	Y21	Z21	X22	Y22	Z22	X23	Y23	Z23	X24	Y24	Z24	X25	Y25	Z25	X26	Y26	Z26	X27	Y27	Z27	X28	Y28	Z28	X29	Y29	Z29	X30	Y30	Z30	X31	Y31	Z31	X32	Y32	Z32	X33	Y33	Z33	X34	Y34	Z34	X35	Y35	Z35	X36	Y36	Z36	X37	Y37	Z37	X38	Y38	Z38	X39	Y39	Z39	X40	Y40	Z40	X41	Y41	Z41	X42	Y42	Z42
																																																																																																																															
134	1.33	710.38843	1742.58069	915.02576	716.69159	1732.10254	1058.28687	581.81213	1664.94165	917.42572	575.84753	1652.64587	1059.95313	534.8653	1523.29712	995.2998	500.61816	1245.22546	1009.12323	677.1098	1464.13892	982.63525	741.36383	1296.62366	995.53143	487.70081	1346.67615	1063.57751	599.79156	1497.74182	815.03778	606.85327	1298.61389	730.39404	618.74139	1157.71497	712.98358	658.14697	1030.67529	700.23053	743.39856	922.91022	728.53735	696.33795	914.18152	698.6051	730.54517	858.83698	690.24384	613.42065	1499.42883	1178.96619	588.77063	1312.96606	1272.05957	608.9837	1167.03503	1298.04871	651.64752	1052.18445	1311.83289	708.03729	929.43054	1281.54956	670.03052	923.21887	1323.95032	706.21613	858.60931	1311.67432	730.17743	992.9339	873.32141	742.53583	987.59528	1124.11072	525.14508	1035.20081	961.01123	526.94116	1034.55481	1076.85413	669.5094	672.55933	835.58435	641.32349	472.6026	876.47601	571.44415	289.39682	886.27545	558.6543	68.69053	931.87018	524.11572	42.1945	986.37482	712.55579	30.47282	909.28033	734.19427	683.64709	1213.33057	790.00989	492.26013	1199.20056	681.84778	342.96335	1206.36243	587.83539	174.48024	1179.18884	541.75525	133.27002	1119.51428	695.33948	59.44773	1209.69128	610.25696	1810.3269	1004.92822	-2846.08301	1034.25415	3356.87256	NaN	NaN	NaN
135	1.34	723.7915	1742.16382	913.80151	729.76691	1731.29663	1056.95386	594.54626	1664.80359	915.97284	588.69519	1652.09302	1058.44067	547.54541	1522.98547	994.0014	512.69824	1245.08423	1007.59863	689.63867	1463.69946	980.77319	753.55286	1295.97998	992.90515	500.5712	1346.58875	1061.50879	612.17267	1497.8551	813.56836	622.19116	1299.34729	728.14374	637.88824	1158.50061	710.35498	682.61151	1032.93005	698.77441	772.68634	929.67743	728.2547	725.78241	918.37262	698.38495	762.93182	864.61646	690.78534	627.22577	1498.32349	1177.4021	601.1958	1311.87549	1270.06982	618.789	1165.92322	1295.64075	656.95245	1049.53516	1309.32654	707.70105	923.92493	1279.78308	670.07263	919.88379	1322.87292	702.24963	853.18402	1310.38525	739.95972	991.59998	869.3421	755.92242	987.28674	1119.78967	536.52112	1034.74316	960.56915	539.36469	1034.52441	1076.47278	675.96777	671.67334	834.59052	645.2431	472.01212	875.88086	573.94098	289.25342	885.81818	559.08862	68.79221	932.06366	524.55139	42.31261	986.49506	712.65509	30.38679	909.31287	751.37543	685.04828	1211.32153	809.9472	493.38812	1195.40308	709.8924	337.56323	1204.01062	625.39105	163.66466	1177.2356	581.06854	119.78646	1118.41125	740.78333	55.69188	1205.7666	623.48798	1810.07227	1003.89038	-2846.18042	1034.22607	3357.02222	NaN	NaN	NaN
136	1.35	736.34845	1741.25781	912.32867	742.84888	1730.22986	1055.50134	607.18414	1664.55115	914.79126	601.51062	1651.2168	1057.12439	560.32892	1522.41528	992.73016	524.85931	1244.61865	1006.10529	702.17462	1462.90906	979.0304	765.80597	1294.97949	990.32532	512.76257	1346.32996	1061.06494	624.68268	1497.64148	812.0766	638.30347	1299.71948	726.02362	655.9967	1158.96509	707.56439	706.46423	1035.11072	697.23547	801.72083	936.88641	728.11432	755.31293	922.72791	698.66132	794.76324	870.99805	691.39252	640.90979	1497.01563	1175.83594	613.40155	1310.58447	1268.28027	628.52167	1164.17798	1292.46338	662.57898	1046.94189	1307.40845	707.60706	918.88867	1278.21057	670.48016	917.1825	1322.12439	698.81439	848.46436	1309.44214	749.89673	989.97412	865.44739	769.89478	986.87408	1115.85388	547.89124	1034.03284	960.27136	551.862	1034.22412	1076.16626	682.52893	670.62146	833.5108	649.03076	471.2901	875.03564	576.49738	289.13644	885.3161	559.34045	68.89545	932.2511	524.6347	42.55753	986.52606	712.68964	30.33704	909.19354	768.19891	686.12091	1209.17773	829.01819	493.7413	1191.88892	738.08557	331.71964	1201.63196	664.06433	152.85458	1175.72412	621.97668	106.3951	1117.20972	786.81342	52.55277	1202.10828	636.92285	1809.39099	1002.83551	-2845.26929	1034.35278	3360.40405	NaN	NaN	NaN
137	1.36	749.61676	1740.24036	911.04797	755.96649	1728.91736	1054.10803	620.12836	1663.55005	913.34253	614.54077	1650.3678	1055.77307	573.15259	1521.62781	991.48029	537.05011	1243.81299	1004.79883	714.75024	1461.87134	977.23572	778.07562	1293.63281	987.7229	525.7525	1345.33752	1059.08301	637.26898	1497.05188	810.57196	652.6864	1300.22595	723.63953	674.25757	1159.30859	704.76508	730.27142	1037.6781	696.06818	829.53394	944.30487	728.07855	783.98853	927.59448	698.76282	825.64014	877.5072	692.2077	654.88043	1495.29822	1174.46375	625.26569	1309.1355	1266.77185	638.12152	1162.60046	1290.08948	668.09766	1044.46875	1305.40417	707.72357	914.30853	1276.79932	671.19769	914.66705	1321.49597	695.80756	844.37274	1308.74817	759.92932	988.16876	861.74622	783.04633	985.83429	1112.26599	559.40192	1033.08484	960.03625	564.30859	1033.60742	1075.92773	689.24292	669.53668	832.49426	653.01563	470.5687	874.37598	578.73431	289.2218	885.09503	559.60004	69.03523	932.47754	524.79565	42.59128	986.92163	712.71759	30.28878	909.02454	784.64685	686.88806	1206.94409	847.35596	493.57956	1188.59387	766.14606	325.76544	1199.6062	703.37482	142.52081	1174.9353	663.55359	93.77368	1117.56702	832.78766	50.06547	1198.84436	649.93121	1808.35352	1001.54498	-2846.12378	1034.354	3357.08374	NaN	NaN	NaN
138	1.37	762.62061	1738.75256	909.62036	769.12671	1727.32593	1052.70154	633.17676	1662.2782	912.30707	627.53577	1649.00806	1054.49573	586.06604	1520.46191	990.17383	549.4118	1242.7074	1003.59021	727.46582	1460.44055	975.52789	790.52252	1291.98499	985.19562	538.35889	1344.29053	1058.18469	650.08521	1495.96777	809.23096	667.68073	1300.03015	721.49805	691.97406	1159.36206	701.99915	753.61011	1040.03796	694.72791	857.17987	952.2923	728.12219	812.78625	932.95764	699.11517	857.09436	885.09747	693.21503	668.703	1493.33972	1172.90808	637.09851	1307.36096	1264.79761	647.53503	1160.69568	1286.80579	673.63281	1042.05347	1303.54883	708.1377	909.91913	1275.71167	672.2384	912.39331	1320.94885	693.47583	840.39862	1308.27917	769.6615	986.05042	858.35327	796.28503	984.34033	1109.12244	570.92963	1031.90222	959.9632	577.03961	1032.51855	1075.61768	696.04694	668.26105	831.43536	657.12531	469.78741	873.67889	580.64233	289.37296	885.20221	559.83948	69.18217	932.7674	524.96027	43.05521	987.33069	712.7265	30.26429	908.82489	800.85138	687.23077	1204.71692	864.97113	492.91379	1185.25745	794.26257	319.70328	1197.84509	743.2887	132.71866	1174.85986	705.76013	81.71164	1117.46619	879.15082	48.34692	1195.51538	663.3902	1806.91089	1000.41205	-2846.13647	1034.38721	3357.14014	NaN	NaN	NaN
